<svg xmlns="http://www.w3.org/2000/svg" viewBox="0 0 1511.15 778.46"><defs><style>.cls-1{fill:#b91580;}.cls-2{fill:#24336c;}</style></defs><g id="Calque_2" data-name="Calque 2"><g id="Calque_1-2" data-name="Calque 1"><path class="cls-1" d="M0,.08H59.8v10.3c0,117.14.28,234.28-.11,351.43-.23,68,33.12,113.88,93.07,141.22,70.05,32,153.47,14.57,202.37-41.43,10.62-12.16,17.71-27.43,26.15-41.43,1.74-2.89,2.17-6.44,6.91-4.8C405.1,421.23,422.05,427,439.52,433A188,188,0,0,1,406,493.57C367.48,540.34,317.81,567.41,257.9,575c-72.22,9.18-136.69-9.15-191-58.22C28.64,482.27,6.28,439.05,1.59,387.27c-.15-1.65-1-3.24-1.59-4.85Z"/><path class="cls-2" d="M1511,778.36h-9.51q-290.84,0-581.66.1c-5.83,0-9.77-1.54-13.75-6.12-38.73-44.62-77.77-89-116.7-133.41-1.82-2.08-3.53-4.24-6.42-7.74h9.53q354.86,0,709.72-.17c7.27,0,9,2.16,8.93,9.07-.28,43.16-.14,86.32-.14,129.47Zm-496.59-92.74c-2.95-11.69-9.39-19-19.11-22.94-16.75-6.89-33.13-5.75-46.88,6.51-13.33,11.88-16.19,27.62-11.4,44.47C943.08,735,965.52,746.77,988,740.6c17.85-4.9,33.1-20,26.73-45.32-11.78,0-23.81.28-35.81-.12-6.1-.2-6.57,2.92-6.51,7.6.06,4.49.07,8.25,6.33,7.85,5.92-.36,11.89-.07,18.34-.07-.65,2.37-.7,3.17-1.07,3.8-4.87,8.3-14,11.81-23.94,9.3-10.28-2.59-15.93-9.89-16.53-21.37S959.93,681,969.09,679c5.59-1.24,13.82-1.73,17.42,1.39C995.08,687.8,1004,685.44,1014.42,685.62Zm150.28,56.56c23.77,0,42-18.18,42-41.84,0-23.5-18.47-41.76-42.21-41.71-23.91,0-41.77,18-41.69,41.9C1122.93,724.61,1140.62,742.21,1164.7,742.18Zm-61.9-.47-18.15-32c1.4-.94,2-1.42,2.65-1.77,11.37-6.14,16.11-14.61,14.65-26.21-1.34-10.6-8.59-19.37-20.74-20.65-13.85-1.46-28-.34-42.75-.34V669c0,19.78-.13,39.56,0,59.34.13,15-2.75,13,13.52,13.48,5.69.16,7-2.16,6.77-7.25-.32-7.67-.08-15.37-.08-23.05.62-.45,1.25-.89,1.88-1.33,1.82,1.83,4.11,3.38,5.39,5.53,4.21,7,7.85,14.43,12.18,21.41,1.25,2,3.94,4.11,6.18,4.36C1089.87,742.13,1095.52,741.71,1102.8,741.71Zm174.37-81.64c0,4,0,7.59,0,11.12-.06,13.08.36,26.18-.35,39.23-.52,9.64-5.75,13.39-15.44,12.93-8.19-.38-12.37-5-12.66-14.18-.1-3.08,0-6.16,0-9.24V660.27h-19.14c0,19.52-1.28,38.53.39,57.27,1.41,15.9,15.16,24.81,32.93,24.64,17.23-.17,31.92-10,33.09-25.06,1.47-18.77.36-37.74.36-57Zm65.48,53.18c8.11-.82,15.33-1,22.28-2.38,11.91-2.46,19.22-11.63,19.68-23.42.5-12.82-5.54-23.61-17.49-25.61-14.43-2.4-29.32-2.06-44.72-2.94,0,24.27-.17,46.56.06,68.86.17,15.57-3.55,13.75,14.44,14,4.32.07,5.95-1.48,5.81-5.81C1342.48,728.56,1342.65,721.13,1342.65,713.25Zm64.85-53.13v81.61h37.56c12.32,0,12.34,0,11.71-12a24.26,24.26,0,0,0-1-4.08c-8.14,0-16.08.23-24-.18-1.81-.1-4.78-2.23-5-3.77-.69-4.38-.24-8.93-.24-13.87h15.89c11.75,0,11.87-.12,10.9-12.12a29.17,29.17,0,0,0-.87-3.65H1427c-.21-2.77-.23-4.78-.54-6.75-1.13-7.22,1.5-10.2,9.14-9.49,6.77.63,13.65.13,20.83.13V660.12Z"/><path class="cls-2" d="M1101.31,271.67c32,23.37,53.23,52.9,64.24,89.54,26.12,86.89-19.71,179.86-103.35,207.74a169.36,169.36,0,0,1-49.81,8.3c-55,1-110.07.24-165.11.56-7.34,0-9.09-2.26-8.89-9.17.46-16.1.15-32.22.15-49.26h10.85c53.24,0,106.48-.5,159.71.13,67.09.79,113.51-61.85,104.12-123.35-7.68-50.32-42.72-85.23-92.19-93.32a92.25,92.25,0,0,0-14.6-.82q-49.38-.11-98.76,0h-8.9V243.76h9.07c33.18,0,66.36.45,99.53-.13,29.59-.53,55.32-11.39,75.4-33.34,40.44-44.21,27.78-110.12-26.19-138.76a111.5,111.5,0,0,0-53.27-13.15q-78.33.1-156.64,0h-9.83V.92a36.39,36.39,0,0,1,5-.7c57.1,0,114.21-.64,171.29.31,72.07,1.2,135.85,53.9,149,124.33,10.65,57-9.67,103.85-53.52,141C1106.55,267.64,1104.32,269.29,1101.31,271.67Z"/><path class="cls-2" d="M809.7,577.57c-25.05,0-47.86.11-70.67-.19-2,0-4.38-2.37-6-4.17Q619.41,444.3,505.89,315.29q-23.68-26.9-47.38-53.79c-1.43-1.63-2.71-3.41-5.14-6.46h9.82q57.46,0,114.94,0c53.71-.06,96.11-36.89,103.43-89.78,5-35.95-17.1-76.2-52-95A108.66,108.66,0,0,0,577.09,57Q434,57,290.9,57.17c-7.25,0-12.19-1.73-16.92-7.63-13-16.21-26.81-31.77-40.91-48.29,2.1-.47,3.41-1,4.72-1,116.48,0,233-.74,349.44.42,73.24.73,138.88,59.7,149.93,131.45,12.51,81.16-41.5,158.75-122.69,176-8.51,1.81-17.27,2.45-25.91,3.62-2.67.36-5.35.7-9.54,1.25C656.09,401.36,732.15,488.61,809.7,577.57Z"/><path class="cls-2" d="M1510.92,577.94c-19.88,0-38.37.18-56.85-.25-2-.05-4.9-3.23-5.77-5.56-16.32-43.72-32.38-87.53-48.52-131.31-9.58-26-19.37-51.88-28.67-77.95-1.89-5.29-4.47-6.91-9.94-6.88-42.18.22-84.35.12-126.52.1-1.52,0-3-.24-5.13-.41V299.63h118.11L1237.33.77c3-.24,5.13-.55,7.29-.56,11.32,0,22.63,0,33.94,0,19.39,0,19.4,0,26,17.84q101.91,276,203.8,551.91C1509.12,572,1509.73,574.21,1510.92,577.94Z"/><path class="cls-2" d="M1343,696c7.47,0,15.15,2.7,19.58-4.37,1.74-2.77,1.59-8.68-.29-11.36-4.7-6.7-12.21-4.13-19.29-3.85Z"/><path class="cls-2" d="M1143.26,700.64c-.08-14.72,7.92-23.62,21.28-23.66,13.17,0,21.63,9.2,21.56,23.55s-8.85,23.72-21.8,23.5C1151.56,723.81,1143.35,714.69,1143.26,700.64Z"/><path class="cls-2" d="M1059.17,697.06V675.13c7.49,1.83,14.38,2.71,20.38,5.51,1.64.77,2.11,8.16.48,11C1075.37,699.82,1066.84,695.44,1059.17,697.06Z"/></g></g></svg>